<svg width="1214" height="374" viewBox="0 0 1214 374" fill="none" xmlns="http://www.w3.org/2000/svg">
<rect width="1213.61" height="374" rx="20" fill="#3C2844"/>
<g clip-path="url(#clip0_5_256)">
<path d="M167.306 40L294.611 113.5V260.5L167.306 334L40 260.5L40 113.5L167.306 40Z" fill="url(#paint0_linear_5_256)"/>
<g clip-path="url(#clip1_5_256)">
<path d="M133.69 260C127.407 260 122.391 258.241 118.639 254.723C114.974 251.303 113.142 245.781 113.142 238.159C113.142 234.445 113.36 231.122 113.796 228.191C114.32 225.161 114.8 221.936 115.236 218.516C115.759 215.096 116.021 210.991 116.021 206.203C116.021 202.001 115.018 198.678 113.011 196.235C111.091 193.694 107.907 192.424 103.457 192.424H97.3058V181.576H103.457C107.907 181.576 111.091 180.355 113.011 177.912C115.018 175.371 116.021 171.999 116.021 167.797C116.021 162.911 115.759 158.807 115.236 155.484C114.8 152.064 114.32 148.888 113.796 145.956C113.36 142.926 113.142 139.555 113.142 135.841C113.142 128.219 114.974 122.697 118.639 119.277C122.391 115.759 127.407 114 133.69 114H146.254V124.847H134.867C131.29 124.847 128.542 125.825 126.622 127.779C124.703 129.636 123.743 132.763 123.743 137.161C123.743 141.07 123.961 144.49 124.397 147.422C124.921 150.256 125.401 153.187 125.837 156.217C126.36 159.149 126.622 162.716 126.622 166.918C126.622 172.097 125.619 176.397 123.612 179.817C121.605 183.14 118.988 185.436 115.759 186.707V187.293C118.988 188.564 121.605 190.909 123.612 194.329C125.619 197.652 126.622 201.903 126.622 207.082C126.622 211.284 126.36 214.9 125.837 217.93C125.401 220.861 124.921 223.793 124.397 226.725C123.961 229.559 123.743 232.93 123.743 236.839C123.743 241.237 124.703 244.364 126.622 246.221C128.542 248.175 131.29 249.153 134.867 249.153H146.254V260H133.69Z" fill="white"/>
<path d="M152.327 235.351L190.405 149.148H137.124V138.649H202.54V147.905L164.741 235.351H152.327Z" fill="white"/>
<path d="M194.358 260V249.153H205.744C209.322 249.153 212.07 248.175 213.989 246.221C215.909 244.364 216.869 241.237 216.869 236.839C216.869 232.93 216.607 229.559 216.083 226.725C215.647 223.793 215.167 220.861 214.644 217.93C214.208 214.9 213.989 211.284 213.989 207.082C213.989 201.903 214.993 197.652 217 194.329C219.006 190.909 221.624 188.564 224.852 187.293V186.707C221.624 185.436 219.006 183.14 217 179.817C214.993 176.397 213.989 172.097 213.989 166.918C213.989 162.716 214.208 159.149 214.644 156.217C215.167 153.187 215.647 150.256 216.083 147.422C216.607 144.49 216.869 141.07 216.869 137.161C216.869 132.763 215.909 129.636 213.989 127.779C212.07 125.825 209.322 124.847 205.744 124.847H194.358V114H206.922C213.204 114 218.178 115.759 221.842 119.277C225.594 122.697 227.47 128.219 227.47 135.841C227.47 139.555 227.208 142.926 226.685 145.956C226.248 148.888 225.768 152.064 225.245 155.484C224.809 158.807 224.59 162.911 224.59 167.797C224.59 171.999 225.55 175.371 227.47 177.912C229.477 180.355 232.705 181.576 237.155 181.576H243.306V192.424H237.155C232.705 192.424 229.477 193.694 227.47 196.235C225.55 198.678 224.59 202.001 224.59 206.203C224.59 210.991 224.809 215.096 225.245 218.516C225.768 221.936 226.248 225.161 226.685 228.191C227.208 231.122 227.47 234.445 227.47 238.159C227.47 245.781 225.594 251.303 221.842 254.723C218.178 258.241 213.204 260 206.922 260H194.358Z" fill="white"/>
</g>
</g>
<path d="M335.611 259.514V114.486H383.779C394.804 114.486 403.831 116.489 410.86 120.494C417.889 124.5 423.057 129.818 426.365 136.448C429.672 143.077 431.326 150.398 431.326 158.409C431.326 166.42 429.672 173.74 426.365 180.37C423.057 187 417.889 192.318 410.86 196.323C403.831 200.329 394.804 202.331 383.779 202.331H352.977V259.514H335.611ZM352.977 186.378H383.365C393.564 186.378 401.144 183.823 406.105 178.713C411.067 173.464 413.548 166.696 413.548 158.409C413.548 150.122 411.067 143.354 406.105 138.105C401.144 132.856 393.564 130.232 383.365 130.232H352.977V186.378Z" fill="white"/>
<path d="M461.221 259.514V114.486H505.667C516.83 114.486 525.995 116.351 533.162 120.08C540.466 123.809 545.91 128.92 549.493 135.412C553.076 141.765 554.868 149.017 554.868 157.166C554.868 166.696 552.387 175.122 547.426 182.442C542.602 189.624 535.16 194.666 525.099 197.566L556.522 259.514H535.849L506.701 200.052H478.586V259.514H461.221ZM478.586 184.099H505.047C516.072 184.099 524.135 181.613 529.234 176.641C534.471 171.53 537.089 165.039 537.089 157.166C537.089 148.878 534.54 142.318 529.441 137.483C524.479 132.649 516.279 130.232 504.84 130.232H478.586V184.099Z" fill="white"/>
<path d="M630.243 262C618.528 262 608.467 258.892 600.06 252.677C591.654 246.461 585.176 237.76 580.628 226.572C576.218 215.246 574.013 202.055 574.013 187C574.013 171.945 576.218 158.823 580.628 147.635C585.176 136.309 591.654 127.539 600.06 121.323C608.467 115.108 618.528 112 630.243 112C641.957 112 652.018 115.108 660.425 121.323C668.832 127.539 675.24 136.309 679.65 147.635C684.198 158.823 686.472 171.945 686.472 187C686.472 202.055 684.198 215.246 679.65 226.572C675.24 237.76 668.832 246.461 660.425 252.677C652.018 258.892 641.957 262 630.243 262ZM630.243 245.633C641.681 245.633 650.915 240.522 657.944 230.301C665.111 220.08 668.694 205.646 668.694 187C668.694 168.354 665.111 153.92 657.944 143.699C650.915 133.478 641.681 128.367 630.243 128.367C618.666 128.367 609.363 133.478 602.334 143.699C595.306 153.92 591.791 168.354 591.791 187C591.791 205.646 595.306 220.08 602.334 230.301C609.363 240.522 618.666 245.633 630.243 245.633Z" fill="white"/>
<path d="M755.852 262C741.657 262 730.769 257.994 723.189 249.983C715.609 241.834 711.819 230.646 711.819 216.42H729.391C729.529 224.569 731.665 231.544 735.799 237.345C739.934 243.008 746.549 245.84 755.645 245.84C764.741 245.84 771.219 243.077 775.077 237.552C779.074 232.028 781.072 225.122 781.072 216.834V114.486H798.438V216.834C798.438 231.337 794.716 242.525 787.274 250.398C779.832 258.133 769.358 262 755.852 262Z" fill="white"/>
<path d="M833.914 259.514V114.486H924.254V130.232H851.279V178.506H918.052V194.251H851.279V243.768H924.254V259.514H833.914Z" fill="white"/>
<path d="M1003.14 262C991.428 262 981.298 258.892 972.754 252.677C964.347 246.461 957.869 237.76 953.321 226.572C948.911 215.384 946.706 202.193 946.706 187C946.706 171.945 948.911 158.823 953.321 147.635C957.869 136.309 964.347 127.539 972.754 121.323C981.298 115.108 991.428 112 1003.14 112C1018.03 112 1030.02 116.144 1039.11 124.431C1048.21 132.58 1053.51 143.492 1055.03 157.166H1035.81C1034.43 149.017 1030.98 142.18 1025.47 136.655C1019.96 131.13 1012.51 128.367 1003.14 128.367C991.152 128.367 981.712 133.616 974.821 144.113C967.93 154.472 964.484 168.768 964.484 187C964.484 205.37 967.93 219.735 974.821 230.094C981.712 240.453 991.152 245.633 1003.14 245.633C1012.93 245.633 1020.44 243.008 1025.68 237.76C1031.05 232.511 1034.43 225.743 1035.81 217.456H1055.03C1052.83 231.268 1047.31 242.18 1038.49 250.191C1029.81 258.064 1018.03 262 1003.14 262Z" fill="white"/>
<path d="M1117.38 259.514V130.232H1078.52V114.486H1173.61V130.232H1134.75V259.514H1117.38Z" fill="white"/>
<defs>
<linearGradient id="paint0_linear_5_256" x1="294.306" y1="40.5" x2="13.1208" y2="221.914" gradientUnits="userSpaceOnUse">
<stop stop-color="#9B59B6"/>
<stop offset="0.25" stop-color="#EC609D"/>
<stop offset="0.5" stop-color="#FF8579"/>
<stop offset="0.75" stop-color="#FFBE60"/>
<stop offset="1" stop-color="#F9F871"/>
</linearGradient>
<clipPath id="clip0_5_256">
<rect width="254.611" height="294" fill="white" transform="translate(40 40)"/>
</clipPath>
<clipPath id="clip1_5_256">
<rect width="146" height="146" fill="white" transform="translate(97.3058 114)"/>
</clipPath>
</defs>
</svg>
